<svg width="305" height="49" viewBox="0 0 305 49" fill="none" xmlns="http://www.w3.org/2000/svg">
<path d="M0.678161 49V0.83908H12.0575L29.2989 30.2644V0.954022H40.4483V49H28.8391L11.7126 20.0345V49H0.678161Z" fill="#FEAFBE"/>
<path d="M0.678161 49V0.83908H12.0575L29.2989 30.2644V0.954022H40.4483V49H28.8391L11.7126 20.0345V49H0.678161Z" fill="#EFC764"/>
<path d="M0.678161 49V0.83908H12.0575L29.2989 30.2644V0.954022H40.4483V49H28.8391L11.7126 20.0345V49H0.678161Z" fill="#B3DFD3"/>
<path d="M0.678161 49V0.83908H12.0575L29.2989 30.2644V0.954022H40.4483V49H28.8391L11.7126 20.0345V49H0.678161Z" fill="#A45A49"/>
<path d="M0.678161 49V0.83908H12.0575L29.2989 30.2644V0.954022H40.4483V49H28.8391L11.7126 20.0345V49H0.678161Z" fill="#97D4D9"/>
<path d="M70.6039 42.5632C73.669 42.5632 75.2016 41.4904 75.2016 39.3448V10.4943C75.2016 8.34866 73.669 7.27586 70.6039 7.27586H65.5464C62.4046 7.27586 60.8337 8.34866 60.8337 10.4943V39.3448C60.8337 41.4904 62.4046 42.5632 65.5464 42.5632H70.6039ZM49.7993 9.45977C49.7993 6.85441 51.1019 4.78544 53.7073 3.25287C56.3893 1.64368 59.6077 0.83908 63.3625 0.83908H72.7878C78.6881 0.83908 82.8261 2.48659 85.2016 5.78161C85.9678 6.85441 86.351 8.08046 86.351 9.45977V40.3793C86.351 42.9847 85.01 45.092 82.328 46.7011C79.7226 48.2337 76.5425 49 72.7878 49H63.3625C57.4621 49 53.3242 47.3525 50.9487 44.0575C50.1824 42.9847 49.7993 41.7586 49.7993 40.3793V9.45977Z" fill="#FEAFBE"/>
<path d="M70.6039 42.5632C73.669 42.5632 75.2016 41.4904 75.2016 39.3448V10.4943C75.2016 8.34866 73.669 7.27586 70.6039 7.27586H65.5464C62.4046 7.27586 60.8337 8.34866 60.8337 10.4943V39.3448C60.8337 41.4904 62.4046 42.5632 65.5464 42.5632H70.6039ZM49.7993 9.45977C49.7993 6.85441 51.1019 4.78544 53.7073 3.25287C56.3893 1.64368 59.6077 0.83908 63.3625 0.83908H72.7878C78.6881 0.83908 82.8261 2.48659 85.2016 5.78161C85.9678 6.85441 86.351 8.08046 86.351 9.45977V40.3793C86.351 42.9847 85.01 45.092 82.328 46.7011C79.7226 48.2337 76.5425 49 72.7878 49H63.3625C57.4621 49 53.3242 47.3525 50.9487 44.0575C50.1824 42.9847 49.7993 41.7586 49.7993 40.3793V9.45977Z" fill="#EFC764"/>
<path d="M70.6039 42.5632C73.669 42.5632 75.2016 41.4904 75.2016 39.3448V10.4943C75.2016 8.34866 73.669 7.27586 70.6039 7.27586H65.5464C62.4046 7.27586 60.8337 8.34866 60.8337 10.4943V39.3448C60.8337 41.4904 62.4046 42.5632 65.5464 42.5632H70.6039ZM49.7993 9.45977C49.7993 6.85441 51.1019 4.78544 53.7073 3.25287C56.3893 1.64368 59.6077 0.83908 63.3625 0.83908H72.7878C78.6881 0.83908 82.8261 2.48659 85.2016 5.78161C85.9678 6.85441 86.351 8.08046 86.351 9.45977V40.3793C86.351 42.9847 85.01 45.092 82.328 46.7011C79.7226 48.2337 76.5425 49 72.7878 49H63.3625C57.4621 49 53.3242 47.3525 50.9487 44.0575C50.1824 42.9847 49.7993 41.7586 49.7993 40.3793V9.45977Z" fill="#B3DFD3"/>
<path d="M70.6039 42.5632C73.669 42.5632 75.2016 41.4904 75.2016 39.3448V10.4943C75.2016 8.34866 73.669 7.27586 70.6039 7.27586H65.5464C62.4046 7.27586 60.8337 8.34866 60.8337 10.4943V39.3448C60.8337 41.4904 62.4046 42.5632 65.5464 42.5632H70.6039ZM49.7993 9.45977C49.7993 6.85441 51.1019 4.78544 53.7073 3.25287C56.3893 1.64368 59.6077 0.83908 63.3625 0.83908H72.7878C78.6881 0.83908 82.8261 2.48659 85.2016 5.78161C85.9678 6.85441 86.351 8.08046 86.351 9.45977V40.3793C86.351 42.9847 85.01 45.092 82.328 46.7011C79.7226 48.2337 76.5425 49 72.7878 49H63.3625C57.4621 49 53.3242 47.3525 50.9487 44.0575C50.1824 42.9847 49.7993 41.7586 49.7993 40.3793V9.45977Z" fill="#A45A49"/>
<path d="M109.232 49L92.3358 0.83908H103.37L114.75 33.2529L126.244 0.83908H137.278L120.382 49H109.232Z" fill="#FEAFBE"/>
<path d="M109.232 49L92.3358 0.83908H103.37L114.75 33.2529L126.244 0.83908H137.278L120.382 49H109.232Z" fill="#EFC764"/>
<path d="M109.232 49L92.3358 0.83908H103.37L114.75 33.2529L126.244 0.83908H137.278L120.382 49H109.232Z" fill="#B3DFD3"/>
<path d="M162.987 42.5632C166.052 42.5632 167.584 41.4904 167.584 39.3448V10.4943C167.584 8.34866 166.052 7.27586 162.987 7.27586H157.929C154.787 7.27586 153.217 8.34866 153.217 10.4943V39.3448C153.217 41.4904 154.787 42.5632 157.929 42.5632H162.987ZM142.182 9.45977C142.182 6.85441 143.485 4.78544 146.09 3.25287C148.772 1.64368 151.99 0.83908 155.745 0.83908H165.171C171.071 0.83908 175.209 2.48659 177.584 5.78161C178.351 6.85441 178.734 8.08046 178.734 9.45977V40.3793C178.734 42.9847 177.393 45.092 174.711 46.7011C172.105 48.2337 168.925 49 165.171 49H155.745C149.845 49 145.707 47.3525 143.331 44.0575C142.565 42.9847 142.182 41.7586 142.182 40.3793V9.45977Z" fill="#FEAFBE"/>
<path d="M162.987 42.5632C166.052 42.5632 167.584 41.4904 167.584 39.3448V10.4943C167.584 8.34866 166.052 7.27586 162.987 7.27586H157.929C154.787 7.27586 153.217 8.34866 153.217 10.4943V39.3448C153.217 41.4904 154.787 42.5632 157.929 42.5632H162.987ZM142.182 9.45977C142.182 6.85441 143.485 4.78544 146.09 3.25287C148.772 1.64368 151.99 0.83908 155.745 0.83908H165.171C171.071 0.83908 175.209 2.48659 177.584 5.78161C178.351 6.85441 178.734 8.08046 178.734 9.45977V40.3793C178.734 42.9847 177.393 45.092 174.711 46.7011C172.105 48.2337 168.925 49 165.171 49H155.745C149.845 49 145.707 47.3525 143.331 44.0575C142.565 42.9847 142.182 41.7586 142.182 40.3793V9.45977Z" fill="#EFC764"/>
<path d="M223.109 7.27586H210.006V49H198.857V7.27586H185.753V0.83908H223.109V7.27586Z" fill="#FEAFBE"/>
<path d="M261.889 49H228.901V0.83908H261.889V7.27586H239.935V20.1494H257.177V26.5862H239.935V42.5632H261.889V49Z" fill="#97D4D9"/>
<path d="M289.095 42.5632C292.16 42.5632 293.692 41.4904 293.692 39.3448V33.9425H304.727V40.3793C304.727 43.0613 303.347 45.1686 300.589 46.7011C298.06 48.2337 294.957 49 291.278 49H283.577C277.677 49 273.539 47.3525 271.164 44.0575C270.397 42.9847 270.014 41.7586 270.014 40.3793V9.45977C270.014 6.85441 271.317 4.78544 273.922 3.25287C276.604 1.64368 279.823 0.83908 283.577 0.83908H291.278C294.957 0.83908 298.098 1.60536 300.704 3.13793C303.386 4.6705 304.727 6.77778 304.727 9.45977V15.8966H293.692V10.4943C293.692 8.34866 292.16 7.27586 289.095 7.27586H285.761C282.619 7.27586 281.049 8.34866 281.049 10.4943V39.3448C281.049 41.4904 282.619 42.5632 285.761 42.5632H289.095Z" fill="#A45A49"/>
</svg>
